<svg width="800" height="600" viewBox="0 0 800 600" fill="none" xmlns="http://www.w3.org/2000/svg">
  <!-- Phone mock -->
  <rect x="250" y="50" width="300" height="500" rx="25" fill="#333333"/>
  <rect x="270" y="70" width="260" height="460" rx="10" fill="#ffffff"/>
  
  <!-- Status bar -->
  <rect x="270" y="70" width="260" height="40" rx="10" fill="#2E3861"/>
  <circle cx="290" cy="90" r="6" fill="#ffffff"/>
  <rect x="310" y="87" width="80" height="6" rx="3" fill="#ffffff" fill-opacity="0.7"/>
  <rect x="490" y="87" width="25" height="6" rx="3" fill="#ffffff"/>
  
  <!-- App content -->
  <rect x="290" y="130" width="220" height="40" rx="8" fill="#f0f4f8"/>
  <rect x="300" y="140" width="140" height="20" rx="4" fill="#2E3861" fill-opacity="0.7"/>
  <rect x="450" y="140" width="50" height="20" rx="10" fill="#E63946"/>
  
  <!-- Event cards -->
  <rect x="290" y="190" width="220" height="100" rx="8" fill="#ffffff" stroke="#e1e1e1" stroke-width="2"/>
  <rect x="310" y="210" width="120" height="20" rx="4" fill="#2E3861" fill-opacity="0.8"/>
  <rect x="310" y="240" width="80" height="15" rx="4" fill="#e1e1e1"/>
  <rect x="310" y="265" width="60" height="15" rx="4" fill="#e1e1e1"/>
  <circle cx="480" cy="240" r="20" fill="#2E3861" fill-opacity="0.2"/>
  <path d="M475 240 L480 235 L485 240 L480 245 Z" fill="#2E3861" stroke="#2E3861" stroke-width="1"/>
  
  <rect x="290" y="310" width="220" height="100" rx="8" fill="#ffffff" stroke="#e1e1e1" stroke-width="2"/>
  <rect x="310" y="330" width="120" height="20" rx="4" fill="#2E3861" fill-opacity="0.8"/>
  <rect x="310" y="360" width="80" height="15" rx="4" fill="#e1e1e1"/>
  <rect x="310" y="385" width="60" height="15" rx="4" fill="#e1e1e1"/>
  <circle cx="480" cy="360" r="20" fill="#2E3861" fill-opacity="0.2"/>
  <path d="M475 360 L480 355 L485 360 L480 365 Z" fill="#2E3861" stroke="#2E3861" stroke-width="1"/>
  
  <rect x="290" y="430" width="220" height="65" rx="8" fill="#2E3861"/>
  <rect x="310" y="445" width="120" height="15" rx="4" fill="#ffffff" fill-opacity="0.9"/>
  <rect x="310" y="470" width="80" height="10" rx="4" fill="#ffffff" fill-opacity="0.5"/>
  
  <!-- Bottom tab bar -->
  <rect x="270" y="515" width="260" height="15" rx="7.5" fill="#e1e1e1"/>
  
  <!-- Phone home button -->
  <circle cx="400" cy="545" r="15" stroke="#e1e1e1" stroke-width="2" fill="none"/>
  
  <!-- Notifications -->
  <circle cx="550" cy="160" r="8" fill="#E63946"/>
  <text x="550" y="164" font-size="10" text-anchor="middle" fill="white" font-weight="bold">3</text>
</svg>
