<svg width="800" height="600" viewBox="0 0 800 600" fill="none" xmlns="http://www.w3.org/2000/svg">
  <!-- Background -->
  <rect width="800" height="600" fill="#f5f5f5"/>
  
  <!-- E-commerce UI elements -->
  <rect x="100" y="100" width="600" height="100" rx="8" fill="#ffffff" stroke="#e1e1e1" stroke-width="2"/>
  <rect x="120" y="130" width="200" height="40" rx="4" fill="#2E3861"/>
  <rect x="340" y="130" width="120" height="40" rx="4" fill="#e1e1e1"/>
  <rect x="480" y="130" width="120" height="40" rx="4" fill="#e1e1e1"/>
  <rect x="620" y="130" width="60" height="40" rx="4" fill="#E63946"/>
  
  <!-- Products grid -->
  <rect x="100" y="220" width="180" height="240" rx="8" fill="#ffffff" stroke="#e1e1e1" stroke-width="2"/>
  <rect x="310" y="220" width="180" height="240" rx="8" fill="#ffffff" stroke="#e1e1e1" stroke-width="2"/>
  <rect x="520" y="220" width="180" height="240" rx="8" fill="#ffffff" stroke="#e1e1e1" stroke-width="2"/>
  
  <!-- Product images placeholder -->
  <rect x="120" y="240" width="140" height="120" rx="4" fill="#e1e1e1"/>
  <rect x="120" y="380" width="140" height="20" rx="4" fill="#2E3861" fill-opacity="0.7"/>
  <rect x="120" y="410" width="80" height="20" rx="4" fill="#e1e1e1"/>
  
  <rect x="330" y="240" width="140" height="120" rx="4" fill="#e1e1e1"/>
  <rect x="330" y="380" width="140" height="20" rx="4" fill="#2E3861" fill-opacity="0.7"/>
  <rect x="330" y="410" width="80" height="20" rx="4" fill="#e1e1e1"/>
  
  <rect x="540" y="240" width="140" height="120" rx="4" fill="#e1e1e1"/>
  <rect x="540" y="380" width="140" height="20" rx="4" fill="#2E3861" fill-opacity="0.7"/>
  <rect x="540" y="410" width="80" height="20" rx="4" fill="#e1e1e1"/>
  
  <!-- Cart icon -->
  <circle cx="700" cy="80" r="30" fill="#2E3861"/>
  <path d="M685 80 L695 80 L700 70 L705 80 L715 80 L710 85 L712 95 L700 90 L688 95 L690 85 Z" fill="white"/>
</svg>
