<svg width="1200" height="630" viewBox="0 0 1200 630" fill="none" xmlns="http://www.w3.org/2000/svg">
  <!-- Background -->
  <rect width="1200" height="630" fill="#2E3861"/>
  
  <!-- Decorative pattern -->
  <path d="M0 0L1200 630" stroke="white" stroke-opacity="0.05" stroke-width="2" />
  <path d="M0 630L1200 0" stroke="white" stroke-opacity="0.05" stroke-width="2" />
  <circle cx="600" cy="315" r="200" stroke="white" stroke-opacity="0.1" stroke-width="40" />
  
  <!-- Horizontal lines -->
  <rect x="50" y="60" width="200" height="3" rx="1.5" fill="white" fill-opacity="0.2" />
  <rect x="950" y="60" width="200" height="3" rx="1.5" fill="white" fill-opacity="0.2" />
  <rect x="50" y="567" width="200" height="3" rx="1.5" fill="white" fill-opacity="0.2" />
  <rect x="950" y="567" width="200" height="3" rx="1.5" fill="white" fill-opacity="0.2" />
  
  <!-- Logo -->
  <rect x="470" y="200" width="260" height="260" rx="20" fill="#2E3861" stroke="white" stroke-width="8" />
  <path d="M515 260L550 400H575L600 300L625 400H650L685 260H660L645 340L620 260H580L555 340L540 260H515Z" fill="white" />
  
  <!-- Text -->
  <text x="600" y="500" font-family="sans-serif" font-size="60" font-weight="bold" text-anchor="middle" fill="white">MINI DEV</text>
  <text x="600" y="540" font-family="sans-serif" font-size="24" text-anchor="middle" fill="white">微開發工作室</text>
</svg>
